<svg xmlns="http://www.w3.org/2000/svg" width="960" height="540" viewBox="0 0 960 540" role="img" aria-labelledby="title desc">
  <title id="title">Mardas MD2PDF publishing pipeline</title>
  <desc id="desc">Refined architecture banner showing Markdown, parser, HTML assembly, appearance styling, and Chromium PDF export in one consistent emerald visual language.</desc>
  <defs>
    <linearGradient id="accent" x1="0" x2="1" y1="0" y2="1">
      <stop offset="0" stop-color="#10b981"/>
      <stop offset="1" stop-color="#0f766e"/>
    </linearGradient>
    <linearGradient id="panel" x1="0" x2="1" y1="0" y2="1">
      <stop offset="0" stop-color="#ffffff"/>
      <stop offset="1" stop-color="#f8fafc"/>
    </linearGradient>
    <filter id="shadow" x="-20%" y="-20%" width="140%" height="140%">
      <feDropShadow dx="0" dy="10" stdDeviation="12" flood-color="#0f172a" flood-opacity="0.10"/>
    </filter>
    <marker id="arrow" viewBox="0 0 10 10" refX="8.4" refY="5" markerWidth="7" markerHeight="7" orient="auto-start-reverse">
      <path d="M 0 0 L 10 5 L 0 10 z" fill="#10b981"/>
    </marker>
    <style>
      .frame { fill: #f8fafc; stroke: #dbe3ef; stroke-width: 2; }
      .header { fill: url(#panel); stroke: #dbe3ef; stroke-width: 2; filter: url(#shadow); }
      .card { fill: #ffffff; stroke: #cbd5e1; stroke-width: 2; filter: url(#shadow); }
      .card-accent { fill: #ecfdf5; stroke: #10b981; stroke-width: 2; filter: url(#shadow); }
      .label { font: 700 24px "Segoe UI", Arial, sans-serif; fill: #0f172a; text-anchor: middle; }
      .meta { font: 600 16px "Segoe UI", Arial, sans-serif; fill: #64748b; text-anchor: middle; }
      .meta-start { text-anchor:start; }
      .smallcaps { font: 800 12px "Segoe UI", Arial, sans-serif; fill: #0f766e; letter-spacing: 0.16em; text-transform: uppercase; }
      .brand { font: 800 28px "Segoe UI", Arial, sans-serif; fill: #0f172a; }
      .arrow { fill: none; stroke: #10b981; stroke-width: 5; stroke-linecap: round; marker-end: url(#arrow); }
      .accent-line { stroke: #dbe3ef; stroke-width: 2; }
    </style>
  </defs>

  <rect x="30" y="30" width="900" height="480" rx="30" class="frame"/>
  <rect x="60" y="60" width="840" height="96" rx="26" class="header"/>

  <g transform="translate(86 78)">
    <rect x="0" y="0" width="58" height="58" rx="18" fill="#ffffff" stroke="#dbe3ef" stroke-width="2"/>
    <g id="architecture-project-mark" transform="translate(9 8) scale(0.039)">
      <path d="M 660.0 87.0 L 633.0 103.0 L 611.0 118.0 L 580.0 142.0 L 556.0 163.0 L 522.0 197.0 L 507.0 214.0 L 477.0 252.0 L 460.0 277.0 L 447.0 299.0 L 431.0 331.0 L 422.0 353.0 L 412.0 385.0 L 407.0 408.0 L 405.0 429.0 L 404.0 430.0 L 404.0 442.0 L 403.0 443.0 L 404.0 487.0 L 405.0 488.0 L 406.0 504.0 L 407.0 505.0 L 410.0 526.0 L 419.0 558.0 L 436.0 599.0 L 452.0 629.0 L 477.0 667.0 L 504.0 701.0 L 539.0 738.0 L 571.0 766.0 L 568.0 752.0 L 560.0 728.0 L 543.0 690.0 L 519.0 652.0 L 495.0 623.0 L 509.0 598.0 L 540.0 534.0 L 571.0 462.0 L 575.0 450.0 L 593.0 409.0 L 594.0 404.0 L 598.0 397.0 L 599.0 392.0 L 608.0 372.0 L 620.0 339.0 L 622.0 337.0 L 641.0 385.0 L 644.0 390.0 L 667.0 449.0 L 673.0 461.0 L 694.0 513.0 L 715.0 557.0 L 715.0 559.0 L 734.0 597.0 L 748.0 622.0 L 748.0 624.0 L 734.0 639.0 L 711.0 671.0 L 700.0 690.0 L 688.0 715.0 L 678.0 742.0 L 672.0 764.0 L 668.0 784.0 L 667.0 796.0 L 666.0 797.0 L 665.0 816.0 L 664.0 817.0 L 664.0 841.0 L 694.0 871.0 L 719.0 903.0 L 729.0 919.0 L 739.0 939.0 L 748.0 963.0 L 754.0 992.0 L 755.0 1018.0 L 754.0 1019.0 L 754.0 1029.0 L 753.0 1030.0 L 752.0 1042.0 L 748.0 1058.0 L 742.0 1073.0 L 782.0 1031.0 L 833.0 969.0 L 867.0 922.0 L 895.0 879.0 L 907.0 858.0 L 921.0 830.0 L 929.0 811.0 L 941.0 774.0 L 943.0 762.0 L 945.0 757.0 L 948.0 735.0 L 949.0 734.0 L 950.0 717.0 L 951.0 716.0 L 951.0 700.0 L 952.0 699.0 L 951.0 658.0 L 950.0 657.0 L 949.0 639.0 L 948.0 638.0 L 944.0 612.0 L 933.0 575.0 L 920.0 544.0 L 898.0 505.0 L 879.0 478.0 L 841.0 431.0 L 763.0 344.0 L 725.0 299.0 L 700.0 265.0 L 682.0 235.0 L 666.0 198.0 L 656.0 160.0 L 656.0 153.0 L 655.0 152.0 L 655.0 116.0 L 656.0 115.0 L 658.0 97.0 L 661.0 88.0 Z" fill="#088A83"/>
      <path d="M 378.0 497.0 L 355.0 529.0 L 333.0 569.0 L 322.0 595.0 L 314.0 619.0 L 307.0 647.0 L 305.0 665.0 L 304.0 666.0 L 304.0 673.0 L 303.0 674.0 L 303.0 681.0 L 302.0 682.0 L 302.0 694.0 L 301.0 695.0 L 302.0 742.0 L 303.0 743.0 L 303.0 751.0 L 304.0 752.0 L 304.0 759.0 L 305.0 760.0 L 307.0 777.0 L 318.0 816.0 L 335.0 855.0 L 353.0 884.0 L 377.0 914.0 L 397.0 934.0 L 422.0 955.0 L 446.0 972.0 L 463.0 982.0 L 466.0 985.0 L 519.0 1014.0 L 538.0 1026.0 L 552.0 1037.0 L 565.0 1051.0 L 575.0 1065.0 L 583.0 1081.0 L 588.0 1097.0 L 589.0 1107.0 L 590.0 1108.0 L 590.0 1117.0 L 591.0 1118.0 L 591.0 1132.0 L 590.0 1133.0 L 590.0 1141.0 L 589.0 1142.0 L 588.0 1152.0 L 585.0 1163.0 L 576.0 1182.0 L 593.0 1180.0 L 611.0 1174.0 L 614.0 1174.0 L 641.0 1162.0 L 657.0 1152.0 L 671.0 1141.0 L 694.0 1117.0 L 704.0 1103.0 L 714.0 1085.0 L 722.0 1064.0 L 728.0 1035.0 L 727.0 993.0 L 718.0 960.0 L 703.0 929.0 L 685.0 903.0 L 666.0 881.0 L 638.0 854.0 L 609.0 830.0 L 555.0 789.0 L 526.0 764.0 L 490.0 729.0 L 468.0 704.0 L 450.0 681.0 L 431.0 653.0 L 421.0 636.0 L 406.0 607.0 L 398.0 588.0 L 390.0 565.0 L 383.0 537.0 L 380.0 512.0 L 379.0 511.0 L 379.0 497.0 Z" fill="#123664"/>
      <path d="M 619.0 358.0 L 619.0 360.0 L 618.0 361.0 L 618.0 362.0 L 617.0 363.0 L 616.0 363.0 L 616.0 367.0 L 614.0 369.0 L 613.0 369.0 L 614.0 370.0 L 614.0 373.0 L 613.0 374.0 L 613.0 375.0 L 612.0 376.0 L 611.0 376.0 L 611.0 380.0 L 610.0 381.0 L 609.0 381.0 L 609.0 385.0 L 606.0 388.0 L 606.0 392.0 L 604.0 394.0 L 604.0 398.0 L 602.0 400.0 L 602.0 401.0 L 601.0 402.0 L 601.0 405.0 L 600.0 406.0 L 599.0 405.0 L 598.0 405.0 L 597.0 406.0 L 596.0 405.0 L 596.0 406.0 L 598.0 406.0 L 599.0 407.0 L 599.0 409.0 L 597.0 411.0 L 596.0 411.0 L 597.0 412.0 L 596.0 413.0 L 597.0 414.0 L 597.0 416.0 L 594.0 419.0 L 594.0 422.0 L 593.0 423.0 L 591.0 423.0 L 591.0 424.0 L 592.0 425.0 L 591.0 426.0 L 591.0 428.0 L 590.0 429.0 L 589.0 429.0 L 589.0 434.0 L 586.0 436.0 L 587.0 437.0 L 587.0 439.0 L 584.0 442.0 L 584.0 446.0 L 583.0 447.0 L 581.0 447.0 L 581.0 448.0 L 582.0 449.0 L 582.0 451.0 L 580.0 453.0 L 579.0 453.0 L 579.0 458.0 L 578.0 459.0 L 576.0 459.0 L 576.0 460.0 L 577.0 461.0 L 577.0 462.0 L 575.0 464.0 L 574.0 464.0 L 575.0 465.0 L 575.0 467.0 L 574.0 468.0 L 574.0 469.0 L 572.0 471.0 L 572.0 474.0 L 570.0 476.0 L 569.0 476.0 L 569.0 477.0 L 570.0 478.0 L 570.0 480.0 L 568.0 483.0 L 567.0 482.0 L 567.0 487.0 L 566.0 488.0 L 564.0 488.0 L 564.0 490.0 L 565.0 491.0 L 564.0 492.0 L 564.0 493.0 L 563.0 494.0 L 562.0 494.0 L 562.0 498.0 L 560.0 500.0 L 559.0 500.0 L 560.0 501.0 L 560.0 502.0 L 559.0 503.0 L 559.0 504.0 L 557.0 506.0 L 557.0 510.0 L 556.0 511.0 L 554.0 511.0 L 555.0 512.0 L 555.0 516.0 L 554.0 517.0 L 553.0 516.0 L 552.0 516.0 L 552.0 521.0 L 550.0 523.0 L 550.0 526.0 L 548.0 528.0 L 547.0 528.0 L 547.0 529.0 L 548.0 530.0 L 548.0 531.0 L 547.0 532.0 L 547.0 533.0 L 546.0 534.0 L 545.0 533.0 L 544.0 533.0 L 545.0 534.0 L 545.0 538.0 L 544.0 539.0 L 543.0 539.0 L 544.0 540.0 L 543.0 541.0 L 543.0 542.0 L 541.0 544.0 L 540.0 544.0 L 540.0 549.0 L 539.0 550.0 L 538.0 550.0 L 538.0 554.0 L 537.0 555.0 L 535.0 555.0 L 535.0 559.0 L 534.0 560.0 L 533.0 560.0 L 533.0 564.0 L 532.0 565.0 L 529.0 565.0 L 530.0 566.0 L 530.0 569.0 L 529.0 570.0 L 528.0 570.0 L 528.0 573.0 L 526.0 575.0 L 525.0 575.0 L 525.0 579.0 L 524.0 580.0 L 523.0 580.0 L 523.0 583.0 L 521.0 585.0 L 520.0 585.0 L 521.0 586.0 L 521.0 587.0 L 519.0 590.0 L 518.0 589.0 L 518.0 593.0 L 515.0 595.0 L 516.0 596.0 L 516.0 597.0 L 515.0 598.0 L 515.0 599.0 L 514.0 600.0 L 513.0 600.0 L 513.0 603.0 L 512.0 604.0 L 510.0 604.0 L 510.0 605.0 L 511.0 606.0 L 511.0 609.0 L 507.0 613.0 L 506.0 613.0 L 505.0 614.0 L 505.0 617.0 L 504.0 618.0 L 503.0 618.0 L 503.0 622.0 L 504.0 622.0 L 506.0 624.0 L 506.0 625.0 L 507.0 625.0 L 508.0 626.0 L 509.0 626.0 L 512.0 628.0 L 512.0 629.0 L 511.0 630.0 L 510.0 630.0 L 510.0 632.0 L 511.0 633.0 L 511.0 634.0 L 512.0 634.0 L 513.0 635.0 L 513.0 636.0 L 511.0 638.0 L 509.0 636.0 L 509.0 637.0 L 511.0 639.0 L 513.0 637.0 L 514.0 637.0 L 515.0 638.0 L 515.0 640.0 L 516.0 640.0 L 518.0 642.0 L 518.0 643.0 L 521.0 646.0 L 522.0 646.0 L 523.0 647.0 L 523.0 649.0 L 522.0 650.0 L 522.0 651.0 L 523.0 650.0 L 524.0 650.0 L 525.0 651.0 L 525.0 652.0 L 527.0 654.0 L 527.0 657.0 L 529.0 657.0 L 530.0 658.0 L 530.0 660.0 L 531.0 660.0 L 533.0 662.0 L 533.0 664.0 L 535.0 666.0 L 535.0 668.0 L 536.0 668.0 L 538.0 670.0 L 537.0 671.0 L 537.0 672.0 L 538.0 672.0 L 540.0 674.0 L 540.0 676.0 L 541.0 676.0 L 542.0 677.0 L 542.0 680.0 L 544.0 680.0 L 545.0 681.0 L 545.0 684.0 L 544.0 685.0 L 546.0 685.0 L 547.0 686.0 L 547.0 690.0 L 548.0 689.0 L 551.0 692.0 L 551.0 694.0 L 553.0 697.0 L 552.0 698.0 L 552.0 699.0 L 553.0 699.0 L 555.0 701.0 L 555.0 702.0 L 554.0 703.0 L 554.0 704.0 L 556.0 704.0 L 557.0 705.0 L 557.0 708.0 L 556.0 709.0 L 557.0 710.0 L 558.0 710.0 L 560.0 712.0 L 560.0 713.0 L 559.0 714.0 L 559.0 715.0 L 560.0 715.0 L 562.0 717.0 L 562.0 721.0 L 565.0 724.0 L 565.0 727.0 L 567.0 729.0 L 567.0 732.0 L 566.0 733.0 L 566.0 734.0 L 567.0 734.0 L 569.0 736.0 L 569.0 743.0 L 570.0 742.0 L 572.0 745.0 L 572.0 749.0 L 571.0 750.0 L 571.0 751.0 L 572.0 750.0 L 573.0 750.0 L 575.0 752.0 L 575.0 753.0 L 578.0 756.0 L 578.0 761.0 L 577.0 762.0 L 577.0 766.0 L 575.0 768.0 L 574.0 767.0 L 574.0 768.0 L 573.0 769.0 L 572.0 769.0 L 573.0 770.0 L 573.0 771.0 L 572.0 772.0 L 571.0 772.0 L 569.0 769.0 L 568.0 770.0 L 565.0 770.0 L 562.0 772.0 L 561.0 771.0 L 560.0 772.0 L 558.0 772.0 L 557.0 771.0 L 557.0 763.0 L 558.0 762.0 L 558.0 761.0 L 557.0 761.0 L 555.0 759.0 L 555.0 758.0 L 554.0 758.0 L 550.0 754.0 L 550.0 753.0 L 545.0 753.0 L 542.0 750.0 L 542.0 749.0 L 541.0 748.0 L 541.0 747.0 L 540.0 746.0 L 539.0 747.0 L 538.0 746.0 L 538.0 744.0 L 537.0 744.0 L 536.0 743.0 L 536.0 740.0 L 535.0 741.0 L 534.0 741.0 L 533.0 740.0 L 533.0 739.0 L 531.0 737.0 L 530.0 737.0 L 528.0 735.0 L 528.0 734.0 L 527.0 734.0 L 526.0 733.0 L 526.0 732.0 L 523.0 729.0 L 522.0 729.0 L 521.0 728.0 L 521.0 727.0 L 518.0 724.0 L 518.0 723.0 L 517.0 723.0 L 516.0 722.0 L 516.0 721.0 L 515.0 720.0 L 514.0 720.0 L 512.0 718.0 L 512.0 717.0 L 509.0 715.0 L 509.0 714.0 L 508.0 713.0 L 507.0 714.0 L 506.0 713.0 L 506.0 712.0 L 505.0 711.0 L 506.0 710.0 L 504.0 708.0 L 504.0 707.0 L 502.0 707.0 L 501.0 706.0 L 501.0 705.0 L 494.0 698.0 L 494.0 697.0 L 495.0 696.0 L 494.0 695.0 L 493.0 695.0 L 492.0 694.0 L 492.0 693.0 L 491.0 692.0 L 490.0 692.0 L 488.0 689.0 L 487.0 689.0 L 485.0 687.0 L 484.0 688.0 L 479.0 683.0 L 479.0 682.0 L 481.0 680.0 L 479.0 678.0 L 479.0 677.0 L 478.0 677.0 L 477.0 676.0 L 477.0 675.0 L 478.0 674.0 L 478.0 673.0 L 476.0 673.0 L 474.0 671.0 L 474.0 670.0 L 473.0 670.0 L 472.0 669.0 L 472.0 668.0 L 471.0 667.0 L 469.0 667.0 L 468.0 666.0 L 467.0 666.0 L 466.0 665.0 L 466.0 664.0 L 465.0 664.0 L 461.0 660.0 L 461.0 657.0 L 462.0 656.0 L 462.0 653.0 L 461.0 653.0 L 460.0 652.0 L 460.0 650.0 L 461.0 649.0 L 460.0 648.0 L 458.0 648.0 L 457.0 647.0 L 457.0 645.0 L 456.0 645.0 L 455.0 644.0 L 455.0 641.0 L 454.0 641.0 L 451.0 639.0 L 447.0 639.0 L 446.0 638.0 L 446.0 636.0 L 445.0 636.0 L 444.0 635.0 L 444.0 630.0 L 445.0 629.0 L 445.0 625.0 L 447.0 623.0 L 447.0 622.0 L 445.0 624.0 L 443.0 624.0 L 442.0 623.0 L 442.0 620.0 L 441.0 620.0 L 440.0 619.0 L 440.0 616.0 L 439.0 616.0 L 437.0 614.0 L 435.0 614.0 L 434.0 615.0 L 433.0 615.0 L 432.0 614.0 L 432.0 607.0 L 431.0 606.0 L 431.0 604.0 L 430.0 603.0 L 430.0 601.0 L 431.0 600.0 L 430.0 599.0 L 430.0 596.0 L 429.0 596.0 L 427.0 593.0 L 427.0 592.0 L 429.0 590.0 L 430.0 590.0 L 430.0 589.0 L 429.0 588.0 L 429.0 587.0 L 429.0 588.0 L 427.0 591.0 L 425.0 589.0 L 425.0 586.0 L 427.0 584.0 L 428.0 584.0 L 427.0 583.0 L 427.0 582.0 L 427.0 583.0 L 425.0 585.0 L 424.0 585.0 L 422.0 583.0 L 422.0 582.0 L 421.0 583.0 L 419.0 583.0 L 419.0 584.0 L 418.0 585.0 L 417.0 584.0 L 417.0 580.0 L 418.0 579.0 L 419.0 579.0 L 419.0 578.0 L 420.0 577.0 L 420.0 574.0 L 418.0 572.0 L 418.0 571.0 L 417.0 570.0 L 417.0 569.0 L 418.0 568.0 L 416.0 566.0 L 416.0 565.0 L 415.0 564.0 L 415.0 561.0 L 416.0 560.0 L 416.0 559.0 L 415.0 560.0 L 413.0 558.0 L 413.0 554.0 L 414.0 553.0 L 416.0 553.0 L 415.0 552.0 L 415.0 549.0 L 415.0 550.0 L 412.0 553.0 L 411.0 552.0 L 411.0 550.0 L 410.0 549.0 L 410.0 548.0 L 411.0 547.0 L 411.0 546.0 L 412.0 545.0 L 413.0 545.0 L 413.0 543.0 L 413.0 544.0 L 412.0 545.0 L 411.0 544.0 L 410.0 545.0 L 408.0 543.0 L 408.0 536.0 L 406.0 534.0 L 406.0 526.0 L 407.0 525.0 L 408.0 526.0 L 408.0 523.0 L 408.0 524.0 L 407.0 525.0 L 405.0 525.0 L 404.0 524.0 L 404.0 522.0 L 403.0 521.0 L 403.0 514.0 L 401.0 511.0 L 401.0 508.0 L 400.0 507.0 L 400.0 499.0 L 401.0 498.0 L 398.0 498.0 L 397.0 497.0 L 398.0 496.0 L 398.0 495.0 L 397.0 496.0 L 396.0 496.0 L 395.0 495.0 L 395.0 494.0 L 397.0 492.0 L 398.0 493.0 L 398.0 489.0 L 399.0 488.0 L 398.0 487.0 L 388.0 487.0 L 388.0 505.0 L 385.0 507.0 L 386.0 508.0 L 386.0 509.0 L 385.0 510.0 L 385.0 512.0 L 386.0 513.0 L 386.0 514.0 L 385.0 515.0 L 385.0 519.0 L 386.0 519.0 L 387.0 520.0 L 388.0 519.0 L 389.0 520.0 L 389.0 521.0 L 388.0 522.0 L 388.0 531.0 L 387.0 532.0 L 387.0 533.0 L 389.0 535.0 L 389.0 536.0 L 391.0 539.0 L 391.0 541.0 L 390.0 542.0 L 390.0 548.0 L 391.0 547.0 L 393.0 550.0 L 393.0 556.0 L 395.0 558.0 L 395.0 560.0 L 396.0 561.0 L 396.0 563.0 L 395.0 564.0 L 395.0 565.0 L 396.0 565.0 L 398.0 568.0 L 398.0 571.0 L 397.0 572.0 L 397.0 573.0 L 399.0 573.0 L 400.0 574.0 L 400.0 579.0 L 399.0 580.0 L 398.0 580.0 L 398.0 582.0 L 398.0 581.0 L 399.0 580.0 L 401.0 580.0 L 403.0 582.0 L 403.0 586.0 L 405.0 586.0 L 406.0 587.0 L 406.0 590.0 L 407.0 591.0 L 407.0 592.0 L 409.0 595.0 L 409.0 599.0 L 410.0 600.0 L 410.0 602.0 L 408.0 604.0 L 407.0 603.0 L 407.0 604.0 L 408.0 605.0 L 408.0 606.0 L 410.0 604.0 L 411.0 604.0 L 412.0 605.0 L 412.0 609.0 L 413.0 609.0 L 415.0 611.0 L 415.0 614.0 L 416.0 613.0 L 418.0 613.0 L 419.0 614.0 L 419.0 615.0 L 423.0 619.0 L 423.0 622.0 L 422.0 623.0 L 421.0 623.0 L 422.0 624.0 L 422.0 627.0 L 420.0 629.0 L 420.0 630.0 L 422.0 628.0 L 423.0 628.0 L 425.0 630.0 L 425.0 631.0 L 423.0 633.0 L 422.0 633.0 L 422.0 634.0 L 423.0 635.0 L 425.0 633.0 L 426.0 633.0 L 427.0 634.0 L 427.0 637.0 L 429.0 637.0 L 430.0 638.0 L 432.0 638.0 L 433.0 639.0 L 432.0 640.0 L 435.0 640.0 L 438.0 643.0 L 438.0 648.0 L 437.0 649.0 L 437.0 653.0 L 438.0 653.0 L 439.0 654.0 L 439.0 656.0 L 438.0 657.0 L 437.0 657.0 L 437.0 658.0 L 438.0 659.0 L 438.0 660.0 L 438.0 659.0 L 440.0 657.0 L 442.0 659.0 L 442.0 661.0 L 443.0 661.0 L 444.0 662.0 L 444.0 663.0 L 442.0 665.0 L 442.0 666.0 L 443.0 667.0 L 443.0 666.0 L 444.0 665.0 L 446.0 665.0 L 447.0 666.0 L 451.0 666.0 L 452.0 667.0 L 452.0 675.0 L 456.0 679.0 L 456.0 681.0 L 459.0 684.0 L 459.0 685.0 L 460.0 685.0 L 462.0 687.0 L 462.0 688.0 L 463.0 688.0 L 464.0 689.0 L 464.0 691.0 L 465.0 691.0 L 466.0 690.0 L 467.0 690.0 L 470.0 692.0 L 470.0 693.0 L 471.0 694.0 L 470.0 695.0 L 470.0 696.0 L 471.0 697.0 L 471.0 699.0 L 472.0 700.0 L 473.0 700.0 L 474.0 701.0 L 474.0 702.0 L 475.0 702.0 L 476.0 703.0 L 476.0 704.0 L 477.0 705.0 L 477.0 706.0 L 476.0 707.0 L 477.0 707.0 L 478.0 708.0 L 478.0 709.0 L 479.0 710.0 L 480.0 710.0 L 484.0 714.0 L 484.0 715.0 L 485.0 715.0 L 486.0 716.0 L 487.0 716.0 L 489.0 718.0 L 489.0 719.0 L 490.0 719.0 L 491.0 720.0 L 491.0 722.0 L 495.0 726.0 L 495.0 728.0 L 497.0 728.0 L 498.0 729.0 L 498.0 731.0 L 499.0 730.0 L 500.0 730.0 L 505.0 735.0 L 505.0 736.0 L 504.0 737.0 L 505.0 738.0 L 506.0 737.0 L 507.0 738.0 L 507.0 739.0 L 510.0 742.0 L 510.0 743.0 L 511.0 742.0 L 512.0 742.0 L 513.0 743.0 L 513.0 744.0 L 514.0 744.0 L 515.0 745.0 L 515.0 746.0 L 516.0 745.0 L 517.0 746.0 L 517.0 747.0 L 520.0 749.0 L 520.0 751.0 L 522.0 753.0 L 522.0 755.0 L 523.0 754.0 L 524.0 754.0 L 526.0 756.0 L 527.0 756.0 L 533.0 762.0 L 533.0 763.0 L 534.0 763.0 L 535.0 764.0 L 535.0 766.0 L 537.0 766.0 L 538.0 767.0 L 538.0 769.0 L 539.0 768.0 L 541.0 770.0 L 541.0 772.0 L 542.0 772.0 L 543.0 771.0 L 546.0 773.0 L 548.0 773.0 L 549.0 774.0 L 551.0 774.0 L 552.0 775.0 L 552.0 777.0 L 553.0 778.0 L 555.0 775.0 L 556.0 776.0 L 556.0 778.0 L 555.0 779.0 L 555.0 782.0 L 556.0 783.0 L 555.0 784.0 L 557.0 784.0 L 558.0 783.0 L 559.0 784.0 L 559.0 786.0 L 561.0 786.0 L 562.0 787.0 L 562.0 788.0 L 563.0 788.0 L 566.0 791.0 L 568.0 791.0 L 569.0 790.0 L 570.0 790.0 L 577.0 797.0 L 577.0 801.0 L 580.0 801.0 L 581.0 802.0 L 581.0 803.0 L 583.0 803.0 L 584.0 804.0 L 584.0 805.0 L 585.0 805.0 L 587.0 807.0 L 587.0 808.0 L 589.0 808.0 L 591.0 810.0 L 592.0 810.0 L 594.0 808.0 L 597.0 808.0 L 598.0 809.0 L 598.0 810.0 L 601.0 812.0 L 601.0 815.0 L 600.0 816.0 L 600.0 818.0 L 602.0 818.0 L 603.0 819.0 L 603.0 820.0 L 605.0 820.0 L 606.0 821.0 L 606.0 822.0 L 607.0 823.0 L 608.0 823.0 L 610.0 825.0 L 611.0 824.0 L 615.0 824.0 L 616.0 825.0 L 616.0 829.0 L 618.0 831.0 L 618.0 832.0 L 619.0 832.0 L 621.0 834.0 L 621.0 835.0 L 622.0 835.0 L 624.0 837.0 L 625.0 837.0 L 626.0 836.0 L 628.0 838.0 L 629.0 838.0 L 630.0 839.0 L 630.0 840.0 L 633.0 843.0 L 633.0 844.0 L 634.0 844.0 L 636.0 846.0 L 636.0 847.0 L 637.0 847.0 L 638.0 848.0 L 638.0 849.0 L 639.0 850.0 L 641.0 850.0 L 642.0 851.0 L 642.0 852.0 L 644.0 852.0 L 645.0 853.0 L 645.0 854.0 L 646.0 854.0 L 648.0 856.0 L 649.0 856.0 L 650.0 857.0 L 650.0 859.0 L 651.0 859.0 L 652.0 860.0 L 652.0 861.0 L 653.0 862.0 L 654.0 862.0 L 655.0 863.0 L 655.0 864.0 L 656.0 864.0 L 658.0 866.0 L 658.0 867.0 L 659.0 867.0 L 660.0 868.0 L 660.0 869.0 L 661.0 869.0 L 663.0 871.0 L 664.0 871.0 L 667.0 874.0 L 667.0 875.0 L 670.0 878.0 L 670.0 879.0 L 671.0 879.0 L 672.0 880.0 L 672.0 881.0 L 674.0 881.0 L 675.0 882.0 L 675.0 884.0 L 676.0 884.0 L 678.0 887.0 L 679.0 887.0 L 681.0 889.0 L 682.0 888.0 L 683.0 889.0 L 683.0 890.0 L 681.0 892.0 L 681.0 893.0 L 683.0 893.0 L 685.0 895.0 L 685.0 896.0 L 686.0 896.0 L 687.0 897.0 L 687.0 898.0 L 688.0 899.0 L 689.0 899.0 L 691.0 901.0 L 693.0 901.0 L 697.0 905.0 L 697.0 906.0 L 698.0 907.0 L 697.0 908.0 L 698.0 909.0 L 698.0 910.0 L 697.0 911.0 L 697.0 913.0 L 698.0 913.0 L 699.0 914.0 L 699.0 915.0 L 700.0 915.0 L 702.0 917.0 L 702.0 918.0 L 700.0 920.0 L 699.0 919.0 L 699.0 920.0 L 700.0 921.0 L 702.0 919.0 L 703.0 920.0 L 705.0 920.0 L 706.0 921.0 L 707.0 920.0 L 710.0 923.0 L 710.0 924.0 L 712.0 927.0 L 712.0 931.0 L 711.0 932.0 L 710.0 931.0 L 710.0 932.0 L 711.0 933.0 L 711.0 934.0 L 712.0 935.0 L 712.0 936.0 L 714.0 938.0 L 714.0 940.0 L 715.0 940.0 L 717.0 942.0 L 717.0 943.0 L 716.0 944.0 L 717.0 945.0 L 719.0 945.0 L 720.0 944.0 L 721.0 944.0 L 723.0 946.0 L 721.0 948.0 L 721.0 949.0 L 722.0 950.0 L 721.0 951.0 L 722.0 951.0 L 723.0 952.0 L 722.0 953.0 L 722.0 955.0 L 721.0 956.0 L 721.0 957.0 L 722.0 957.0 L 724.0 960.0 L 724.0 964.0 L 726.0 964.0 L 727.0 965.0 L 727.0 967.0 L 728.0 968.0 L 728.0 970.0 L 727.0 971.0 L 726.0 971.0 L 727.0 972.0 L 729.0 970.0 L 730.0 971.0 L 730.0 972.0 L 729.0 973.0 L 729.0 977.0 L 728.0 978.0 L 728.0 979.0 L 729.0 980.0 L 729.0 981.0 L 730.0 981.0 L 732.0 984.0 L 731.0 985.0 L 731.0 986.0 L 733.0 989.0 L 731.0 991.0 L 731.0 992.0 L 733.0 992.0 L 735.0 994.0 L 734.0 995.0 L 733.0 995.0 L 733.0 996.0 L 734.0 997.0 L 733.0 998.0 L 734.0 999.0 L 734.0 1006.0 L 735.0 1007.0 L 734.0 1008.0 L 734.0 1010.0 L 733.0 1011.0 L 734.0 1012.0 L 733.0 1013.0 L 733.0 1026.0 L 734.0 1027.0 L 734.0 1039.0 L 733.0 1040.0 L 733.0 1042.0 L 734.0 1043.0 L 733.0 1044.0 L 732.0 1044.0 L 731.0 1043.0 L 731.0 1046.0 L 732.0 1047.0 L 732.0 1050.0 L 734.0 1053.0 L 732.0 1055.0 L 732.0 1056.0 L 730.0 1058.0 L 729.0 1058.0 L 729.0 1061.0 L 728.0 1062.0 L 728.0 1064.0 L 727.0 1065.0 L 726.0 1064.0 L 726.0 1069.0 L 731.0 1069.0 L 732.0 1068.0 L 733.0 1069.0 L 733.0 1067.0 L 734.0 1066.0 L 733.0 1065.0 L 734.0 1064.0 L 735.0 1064.0 L 736.0 1065.0 L 736.0 1064.0 L 738.0 1062.0 L 739.0 1062.0 L 742.0 1060.0 L 742.0 1058.0 L 741.0 1057.0 L 742.0 1056.0 L 742.0 1054.0 L 743.0 1053.0 L 744.0 1054.0 L 745.0 1053.0 L 746.0 1054.0 L 746.0 1056.0 L 746.0 1053.0 L 745.0 1053.0 L 744.0 1052.0 L 744.0 1046.0 L 743.0 1045.0 L 743.0 1044.0 L 742.0 1044.0 L 741.0 1043.0 L 742.0 1042.0 L 743.0 1042.0 L 743.0 1041.0 L 746.0 1038.0 L 746.0 1033.0 L 744.0 1031.0 L 745.0 1030.0 L 748.0 1030.0 L 749.0 1029.0 L 749.0 1025.0 L 748.0 1024.0 L 748.0 1021.0 L 749.0 1020.0 L 749.0 1017.0 L 748.0 1016.0 L 748.0 1011.0 L 747.0 1010.0 L 747.0 1009.0 L 749.0 1007.0 L 749.0 992.0 L 748.0 991.0 L 748.0 990.0 L 747.0 989.0 L 747.0 987.0 L 746.0 986.0 L 747.0 985.0 L 746.0 984.0 L 746.0 980.0 L 747.0 979.0 L 747.0 978.0 L 744.0 975.0 L 744.0 968.0 L 745.0 967.0 L 746.0 967.0 L 746.0 965.0 L 746.0 966.0 L 745.0 967.0 L 743.0 967.0 L 742.0 966.0 L 742.0 964.0 L 741.0 963.0 L 741.0 961.0 L 742.0 960.0 L 742.0 959.0 L 741.0 960.0 L 740.0 959.0 L 740.0 958.0 L 739.0 957.0 L 739.0 954.0 L 740.0 953.0 L 739.0 952.0 L 738.0 952.0 L 736.0 950.0 L 736.0 947.0 L 734.0 944.0 L 734.0 940.0 L 733.0 941.0 L 732.0 940.0 L 732.0 938.0 L 731.0 937.0 L 731.0 936.0 L 729.0 934.0 L 729.0 932.0 L 730.0 931.0 L 730.0 930.0 L 728.0 930.0 L 727.0 929.0 L 727.0 925.0 L 725.0 925.0 L 724.0 924.0 L 724.0 922.0 L 723.0 921.0 L 722.0 922.0 L 721.0 921.0 L 721.0 920.0 L 720.0 921.0 L 719.0 921.0 L 718.0 920.0 L 718.0 917.0 L 719.0 916.0 L 718.0 915.0 L 719.0 914.0 L 720.0 914.0 L 720.0 913.0 L 718.0 913.0 L 717.0 912.0 L 717.0 910.0 L 718.0 909.0 L 717.0 908.0 L 716.0 909.0 L 715.0 908.0 L 715.0 906.0 L 712.0 904.0 L 712.0 902.0 L 711.0 902.0 L 709.0 900.0 L 709.0 899.0 L 708.0 898.0 L 708.0 897.0 L 707.0 896.0 L 707.0 895.0 L 706.0 895.0 L 705.0 894.0 L 705.0 891.0 L 704.0 892.0 L 703.0 891.0 L 703.0 889.0 L 702.0 889.0 L 700.0 887.0 L 700.0 886.0 L 699.0 886.0 L 698.0 885.0 L 698.0 884.0 L 695.0 881.0 L 695.0 880.0 L 696.0 879.0 L 695.0 878.0 L 693.0 880.0 L 692.0 879.0 L 692.0 878.0 L 693.0 877.0 L 693.0 876.0 L 691.0 876.0 L 690.0 875.0 L 690.0 874.0 L 689.0 874.0 L 688.0 873.0 L 688.0 872.0 L 685.0 870.0 L 685.0 869.0 L 683.0 867.0 L 683.0 866.0 L 682.0 866.0 L 680.0 864.0 L 674.0 864.0 L 672.0 862.0 L 672.0 856.0 L 671.0 855.0 L 671.0 854.0 L 670.0 854.0 L 668.0 852.0 L 668.0 851.0 L 667.0 851.0 L 666.0 850.0 L 666.0 849.0 L 663.0 849.0 L 662.0 850.0 L 658.0 850.0 L 657.0 849.0 L 657.0 844.0 L 658.0 843.0 L 658.0 813.0 L 659.0 812.0 L 659.0 810.0 L 661.0 808.0 L 661.0 804.0 L 660.0 803.0 L 661.0 802.0 L 661.0 800.0 L 660.0 799.0 L 660.0 794.0 L 661.0 793.0 L 661.0 790.0 L 662.0 789.0 L 664.0 789.0 L 664.0 787.0 L 663.0 786.0 L 663.0 777.0 L 665.0 775.0 L 666.0 776.0 L 666.0 772.0 L 665.0 771.0 L 665.0 768.0 L 666.0 767.0 L 665.0 766.0 L 666.0 765.0 L 666.0 764.0 L 667.0 763.0 L 668.0 763.0 L 668.0 755.0 L 670.0 753.0 L 671.0 753.0 L 671.0 751.0 L 670.0 750.0 L 670.0 748.0 L 671.0 747.0 L 671.0 746.0 L 673.0 744.0 L 674.0 744.0 L 674.0 743.0 L 673.0 742.0 L 673.0 738.0 L 674.0 737.0 L 676.0 737.0 L 676.0 736.0 L 675.0 735.0 L 675.0 731.0 L 676.0 730.0 L 678.0 730.0 L 678.0 723.0 L 679.0 722.0 L 679.0 720.0 L 681.0 717.0 L 683.0 717.0 L 683.0 716.0 L 682.0 715.0 L 682.0 714.0 L 681.0 713.0 L 681.0 712.0 L 682.0 711.0 L 683.0 712.0 L 685.0 712.0 L 685.0 707.0 L 688.0 704.0 L 688.0 701.0 L 689.0 700.0 L 690.0 701.0 L 690.0 697.0 L 691.0 696.0 L 690.0 695.0 L 690.0 694.0 L 692.0 691.0 L 692.0 690.0 L 691.0 689.0 L 692.0 688.0 L 694.0 688.0 L 697.0 686.0 L 698.0 687.0 L 698.0 686.0 L 697.0 685.0 L 697.0 684.0 L 699.0 682.0 L 700.0 682.0 L 700.0 679.0 L 703.0 677.0 L 703.0 676.0 L 702.0 675.0 L 705.0 672.0 L 705.0 669.0 L 707.0 667.0 L 707.0 666.0 L 708.0 665.0 L 710.0 665.0 L 710.0 663.0 L 712.0 661.0 L 712.0 659.0 L 715.0 656.0 L 714.0 655.0 L 715.0 654.0 L 717.0 654.0 L 717.0 652.0 L 720.0 650.0 L 720.0 649.0 L 722.0 647.0 L 722.0 645.0 L 723.0 644.0 L 724.0 644.0 L 726.0 641.0 L 727.0 641.0 L 727.0 639.0 L 728.0 638.0 L 729.0 638.0 L 729.0 637.0 L 731.0 635.0 L 731.0 634.0 L 733.0 632.0 L 734.0 632.0 L 735.0 633.0 L 735.0 632.0 L 734.0 631.0 L 741.0 624.0 L 741.0 621.0 L 739.0 621.0 L 736.0 618.0 L 735.0 618.0 L 733.0 615.0 L 733.0 614.0 L 735.0 612.0 L 735.0 611.0 L 734.0 610.0 L 734.0 608.0 L 735.0 607.0 L 732.0 605.0 L 732.0 602.0 L 731.0 602.0 L 729.0 600.0 L 729.0 598.0 L 730.0 597.0 L 728.0 597.0 L 727.0 596.0 L 727.0 592.0 L 726.0 592.0 L 724.0 590.0 L 724.0 589.0 L 725.0 588.0 L 725.0 587.0 L 723.0 587.0 L 722.0 586.0 L 722.0 583.0 L 720.0 581.0 L 720.0 577.0 L 719.0 578.0 L 717.0 576.0 L 717.0 572.0 L 716.0 573.0 L 715.0 572.0 L 715.0 567.0 L 714.0 568.0 L 713.0 568.0 L 712.0 567.0 L 712.0 562.0 L 711.0 562.0 L 710.0 561.0 L 710.0 557.0 L 709.0 558.0 L 707.0 556.0 L 707.0 554.0 L 708.0 553.0 L 705.0 551.0 L 705.0 547.0 L 703.0 547.0 L 702.0 546.0 L 702.0 542.0 L 700.0 539.0 L 700.0 536.0 L 699.0 536.0 L 697.0 534.0 L 697.0 531.0 L 695.0 529.0 L 695.0 527.0 L 696.0 526.0 L 695.0 525.0 L 694.0 525.0 L 692.0 523.0 L 692.0 521.0 L 691.0 520.0 L 691.0 518.0 L 690.0 517.0 L 690.0 514.0 L 689.0 514.0 L 687.0 511.0 L 687.0 510.0 L 688.0 509.0 L 687.0 509.0 L 685.0 507.0 L 685.0 505.0 L 686.0 504.0 L 686.0 503.0 L 684.0 503.0 L 683.0 502.0 L 683.0 500.0 L 682.0 499.0 L 682.0 497.0 L 680.0 495.0 L 680.0 493.0 L 681.0 492.0 L 681.0 491.0 L 679.0 491.0 L 678.0 490.0 L 678.0 485.0 L 677.0 486.0 L 676.0 485.0 L 676.0 483.0 L 674.0 481.0 L 674.0 480.0 L 673.0 479.0 L 673.0 474.0 L 672.0 474.0 L 671.0 473.0 L 671.0 471.0 L 670.0 470.0 L 670.0 469.0 L 671.0 468.0 L 671.0 467.0 L 670.0 468.0 L 668.0 466.0 L 668.0 463.0 L 669.0 462.0 L 669.0 461.0 L 668.0 461.0 L 667.0 462.0 L 666.0 461.0 L 666.0 458.0 L 665.0 457.0 L 665.0 456.0 L 663.0 454.0 L 663.0 453.0 L 662.0 452.0 L 662.0 450.0 L 660.0 448.0 L 660.0 444.0 L 658.0 442.0 L 658.0 439.0 L 659.0 438.0 L 659.0 437.0 L 658.0 437.0 L 657.0 438.0 L 656.0 437.0 L 656.0 432.0 L 655.0 432.0 L 653.0 430.0 L 653.0 429.0 L 652.0 428.0 L 652.0 427.0 L 653.0 426.0 L 651.0 424.0 L 651.0 421.0 L 653.0 419.0 L 653.0 418.0 L 650.0 420.0 L 648.0 418.0 L 648.0 414.0 L 646.0 412.0 L 646.0 411.0 L 645.0 410.0 L 646.0 409.0 L 646.0 408.0 L 643.0 405.0 L 643.0 402.0 L 641.0 400.0 L 641.0 397.0 L 642.0 396.0 L 642.0 395.0 L 641.0 395.0 L 640.0 396.0 L 639.0 395.0 L 639.0 394.0 L 638.0 393.0 L 638.0 389.0 L 637.0 389.0 L 636.0 388.0 L 636.0 384.0 L 634.0 382.0 L 634.0 380.0 L 633.0 379.0 L 633.0 378.0 L 631.0 376.0 L 631.0 372.0 L 632.0 371.0 L 630.0 371.0 L 629.0 370.0 L 629.0 369.0 L 628.0 368.0 L 629.0 367.0 L 629.0 366.0 L 626.0 363.0 L 626.0 360.0 L 627.0 359.0 L 629.0 359.0 L 629.0 358.0 L 627.0 358.0 L 624.0 360.0 L 621.0 360.0 Z" fill="#FFFFFF"/>
      <path d="M 619.0 603.0 L 618.0 604.0 L 614.0 604.0 L 613.0 605.0 L 611.0 605.0 L 610.0 606.0 L 607.0 607.0 L 605.0 609.0 L 604.0 609.0 L 600.0 613.0 L 600.0 614.0 L 598.0 616.0 L 598.0 617.0 L 596.0 620.0 L 596.0 622.0 L 595.0 623.0 L 595.0 636.0 L 596.0 637.0 L 596.0 640.0 L 597.0 641.0 L 598.0 644.0 L 601.0 647.0 L 601.0 648.0 L 604.0 651.0 L 605.0 651.0 L 607.0 653.0 L 608.0 653.0 L 613.0 656.0 L 613.0 800.0 L 614.0 800.0 L 617.0 803.0 L 618.0 803.0 L 628.0 812.0 L 629.0 811.0 L 630.0 812.0 L 630.0 813.0 L 630.0 656.0 L 631.0 655.0 L 636.0 653.0 L 639.0 650.0 L 640.0 650.0 L 646.0 642.0 L 646.0 641.0 L 647.0 640.0 L 647.0 638.0 L 648.0 637.0 L 648.0 623.0 L 647.0 622.0 L 647.0 620.0 L 646.0 619.0 L 645.0 616.0 L 642.0 613.0 L 642.0 612.0 L 636.0 607.0 L 635.0 607.0 L 634.0 606.0 L 632.0 606.0 L 629.0 604.0 L 625.0 604.0 L 624.0 603.0 Z" fill="#123664"/>
    </g>
    <text x="82" y="20" class="smallcaps">Markdown to PDF engine</text>
    <text x="82" y="46" class="brand">Mardas MD2PDF</text>
    <text x="82" y="68" class="meta meta-start">Markdown to structured print pipeline</text>
  </g>
  <line x1="82" y1="176" x2="878" y2="176" class="accent-line"/>

  <rect x="76" y="212" width="148" height="112" rx="22" class="card"/>
  <text x="150" y="257" class="label">Markdown</text>
  <text x="150" y="285" class="meta">front matter</text>
  <text x="150" y="306" class="meta">images + tables</text>

  <rect x="262" y="212" width="148" height="112" rx="22" class="card"/>
  <text x="336" y="257" class="label">Parser</text>
  <text x="336" y="285" class="meta">TOC + callouts</text>
  <text x="336" y="306" class="meta">RTL/LTR hooks</text>

  <rect x="448" y="212" width="148" height="112" rx="22" class="card"/>
  <text x="522" y="257" class="label">HTML</text>
  <text x="522" y="285" class="meta">semantic blocks</text>
  <text x="522" y="306" class="meta">safe embedded assets</text>

  <rect x="634" y="212" width="148" height="112" rx="22" class="card"/>
  <text x="708" y="257" class="label">Appearance</text>
  <text x="708" y="285" class="meta">modern + emerald</text>
  <text x="708" y="306" class="meta">print CSS</text>

  <rect x="820" y="212" width="92" height="112" rx="22" class="card-accent"/>
  <text x="866" y="257" class="label">PDF</text>
  <text x="866" y="285" class="meta">Chromium</text>

  <path d="M224 268 H252" class="arrow"/>
  <path d="M410 268 H438" class="arrow"/>
  <path d="M596 268 H624" class="arrow"/>
  <path d="M782 268 H810" class="arrow"/>

  <rect x="160" y="388" width="640" height="74" rx="22" fill="#ffffff" stroke="#cbd5e1" stroke-width="2"/>
  <text x="480" y="420" class="meta">MathJax · Mermaid · code captions · safe HTML · PDF navigation</text>
  <text x="480" y="444" class="meta">Guide samples, Studio preview, and release QA now share the same emerald visual language.</text>
</svg>
