<svg xmlns="http://www.w3.org/2000/svg" width="960" height="520" viewBox="0 0 960 520" role="img" aria-labelledby="title desc">
  <title id="title">Mardas MD2PDF publishing pipeline</title>
  <desc id="desc">A compact architecture diagram showing Markdown flowing through parsing, HTML assembly, Chromium rendering, and PDF output.</desc>
  <defs>
    <linearGradient id="accent" x1="0" x2="1" y1="0" y2="1">
      <stop offset="0" stop-color="#10a37f"/>
      <stop offset="1" stop-color="#0f766e"/>
    </linearGradient>
    <filter id="shadow" x="-20%" y="-20%" width="140%" height="140%">
      <feDropShadow dx="0" dy="8" stdDeviation="10" flood-color="#0f172a" flood-opacity="0.14"/>
    </filter>
    <marker id="arrow" viewBox="0 0 10 10" refX="8.4" refY="5" markerWidth="7" markerHeight="7" orient="auto-start-reverse">
      <path d="M 0 0 L 10 5 L 0 10 z" fill="#10a37f"/>
    </marker>
    <style>
      .bg{fill:#f8fafc;stroke:#dbe3ef;stroke-width:2}
      .card{fill:#ffffff;stroke:#cbd5e1;stroke-width:2;filter:url(#shadow)}
      .card-accent{fill:#ecfdf5;stroke:#10a37f;stroke-width:2;filter:url(#shadow)}
      .label{font:700 26px Inter,Segoe UI,Arial,sans-serif;fill:#0f172a;text-anchor:middle}
      .meta{font:600 16px Inter,Segoe UI,Arial,sans-serif;fill:#64748b;text-anchor:middle}
      .meta-start{text-anchor:start}
      .arrow{fill:none;stroke:#10a37f;stroke-width:5;stroke-linecap:round;marker-end:url(#arrow)}
      .dot{fill:url(#accent)}
    </style>
  </defs>
  <rect x="24" y="24" width="912" height="472" rx="28" class="bg"/>
  <circle cx="88" cy="84" r="10" class="dot"/>
  <text x="126" y="92" class="meta meta-start">Markdown to structured print pipeline</text>

  <rect x="72" y="190" width="170" height="120" rx="22" class="card"/>
  <text x="157" y="242" class="label">Markdown</text>
  <text x="157" y="272" class="meta">front matter</text>

  <rect x="292" y="190" width="170" height="120" rx="22" class="card"/>
  <text x="377" y="242" class="label">Parser</text>
  <text x="377" y="272" class="meta">TOC + blocks</text>

  <rect x="512" y="190" width="170" height="120" rx="22" class="card"/>
  <text x="597" y="242" class="label">HTML</text>
  <text x="597" y="272" class="meta">print CSS</text>

  <rect x="732" y="190" width="170" height="120" rx="22" class="card-accent"/>
  <text x="817" y="242" class="label">PDF</text>
  <text x="817" y="272" class="meta">Chromium</text>

  <path d="M242 250 H284" class="arrow"/>
  <path d="M462 250 H504" class="arrow"/>
  <path d="M682 250 H724" class="arrow"/>

  <rect x="174" y="370" width="612" height="62" rx="18" fill="#ffffff" stroke="#cbd5e1" stroke-width="2"/>
  <text x="480" y="407" class="meta">MathJax · Mermaid · code captions · local assets · PDF navigation</text>
</svg>
