<svg xmlns="http://www.w3.org/2000/svg" width="960" height="540" viewBox="0 0 960 540" role="img" aria-labelledby="title desc">
  <title id="title">Mardas MD2PDF publishing pipeline</title>
  <desc id="desc">Architecture diagram showing Markdown, parser, HTML assembly, appearance styling, and Chromium PDF export in one emerald visual language.</desc>
  <defs>
    <linearGradient id="accent" x1="0" x2="1" y1="0" y2="1">
      <stop offset="0" stop-color="#10b981"/>
      <stop offset="1" stop-color="#0f766e"/>
    </linearGradient>
    <marker id="arrow" viewBox="0 0 10 10" refX="8.4" refY="5" markerWidth="7" markerHeight="7" orient="auto-start-reverse">
      <path d="M 0 0 L 10 5 L 0 10 z" fill="#10b981"/>
    </marker>
    <style>
      .bg{fill:#f8fafc;stroke:#dbe3ef;stroke-width:2}
      .card{fill:#ffffff;stroke:#cbd5e1;stroke-width:2}
      .card-accent{fill:#ecfdf5;stroke:#10b981;stroke-width:2}
      .label{font:700 25px "Segoe UI",Arial,sans-serif;fill:#0f172a;text-anchor:middle}
      .meta{font:600 16px "Segoe UI",Arial,sans-serif;fill:#64748b;text-anchor:middle}
      .meta-start{text-anchor:start}
      .arrow{fill:none;stroke:#10b981;stroke-width:5;stroke-linecap:round;marker-end:url(#arrow)}
      .brand{font:800 24px "Segoe UI",Arial,sans-serif;fill:#0f172a}
    </style>
  </defs>
  <rect x="24" y="24" width="912" height="492" rx="28" class="bg"/>

  <g transform="translate(56 56)">
    <rect x="0" y="0" width="76" height="76" rx="22" fill="url(#accent)"/>
    <path d="M64.1 38.5 L43.8 64.0 L32.3 89.4 L30.0 102.7 L30.6 115.9 L33.4 126.8 L38.2 135.3 L50.2 143.5 L64.5 143.2 L76.2 135.9 L96.1 115.6 L106.8 112.1 L112.6 113.4 L117.8 117.0 L120.9 123.0 L121.5 130.5 L115.9 142.8 L102.2 150.9 L102.2 153.3 L126.6 151.7 L145.8 142.4 L157.0 129.4 L161.9 114.1 L161.4 104.6 L157.9 95.8 L151.9 88.6 L144.5 83.5 L153.2 75.0 L158.5 66.1 L159.4 57.9 L156.1 49.4 L149.2 43.8 L141.2 41.3 L131.9 41.1 L121.2 43.6 L102.8 54.5 L85.2 74.1 L76.1 64.2 L66.4 39.1 Z" fill="#ffffff" transform="translate(-8 -4) scale(.48)"/>
    <text x="98" y="34" class="brand">Mardas MD2PDF</text>
    <text x="98" y="62" class="meta meta-start">Markdown to structured print pipeline</text>
  </g>

  <rect x="70" y="208" width="156" height="118" rx="22" class="card"/>
  <text x="148" y="256" class="label">Markdown</text>
  <text x="148" y="286" class="meta">front matter</text>
  <text x="148" y="307" class="meta">images + tables</text>

  <rect x="258" y="208" width="156" height="118" rx="22" class="card"/>
  <text x="336" y="256" class="label">Parser</text>
  <text x="336" y="286" class="meta">TOC + callouts</text>
  <text x="336" y="307" class="meta">RTL/LTR hooks</text>

  <rect x="446" y="208" width="156" height="118" rx="22" class="card"/>
  <text x="524" y="256" class="label">HTML</text>
  <text x="524" y="286" class="meta">semantic blocks</text>
  <text x="524" y="307" class="meta">safe embedded assets</text>

  <rect x="634" y="208" width="156" height="118" rx="22" class="card"/>
  <text x="712" y="256" class="label">Appearance</text>
  <text x="712" y="286" class="meta">modern + emerald</text>
  <text x="712" y="307" class="meta">print CSS</text>

  <rect x="822" y="208" width="90" height="118" rx="22" class="card-accent"/>
  <text x="867" y="256" class="label">PDF</text>
  <text x="867" y="286" class="meta">Chromium</text>

  <path d="M226 267 H248" class="arrow"/>
  <path d="M414 267 H436" class="arrow"/>
  <path d="M602 267 H624" class="arrow"/>
  <path d="M790 267 H812" class="arrow"/>

  <rect x="140" y="384" width="680" height="78" rx="20" fill="#ffffff" stroke="#cbd5e1" stroke-width="2"/>
  <text x="480" y="418" class="meta">MathJax · Mermaid · code captions · safe HTML · PDF navigation</text>
  <text x="480" y="444" class="meta">Guide samples, Studio preview, and release QA now share the same emerald visual language.</text>
</svg>
