<svg xmlns="http://www.w3.org/2000/svg" width="192" height="192" viewBox="0 0 192 192" role="img" aria-labelledby="title desc">
  <title id="title">Mardas MD2PDF product mark</title>
  <desc id="desc">A compact emerald badge using the organic Mardas product symbol.</desc>
  <defs>
    <linearGradient id="g" x1="0" x2="1" y1="0" y2="1">
      <stop offset="0" stop-color="#34d399"/>
      <stop offset="0.55" stop-color="#10b981"/>
      <stop offset="1" stop-color="#0f766e"/>
    </linearGradient>
    <radialGradient id="shine" cx="0.28" cy="0.20" r="0.72">
      <stop offset="0" stop-color="#ffffff" stop-opacity="0.32"/>
      <stop offset="0.55" stop-color="#ffffff" stop-opacity="0.08"/>
      <stop offset="1" stop-color="#ffffff" stop-opacity="0"/>
    </radialGradient>
  </defs>
  <rect x="18" y="18" width="156" height="156" rx="42" fill="url(#g)"/>
  <rect x="18" y="18" width="156" height="156" rx="42" fill="url(#shine)"/>
  <path d="M64.1 38.5 L43.8 64.0 L32.3 89.4 L30.0 102.7 L30.6 115.9 L33.4 126.8 L38.2 135.3 L50.2 143.5 L64.5 143.2 L76.2 135.9 L96.1 115.6 L106.8 112.1 L112.6 113.4 L117.8 117.0 L120.9 123.0 L121.5 130.5 L115.9 142.8 L102.2 150.9 L102.2 153.3 L126.6 151.7 L145.8 142.4 L157.0 129.4 L161.9 114.1 L161.4 104.6 L157.9 95.8 L151.9 88.6 L144.5 83.5 L153.2 75.0 L158.5 66.1 L159.4 57.9 L156.1 49.4 L149.2 43.8 L141.2 41.3 L131.9 41.1 L121.2 43.6 L102.8 54.5 L85.2 74.1 L76.1 64.2 L66.4 39.1 Z" fill="#ffffff"/>
</svg>
