<svg xmlns="http://www.w3.org/2000/svg" width="192" height="192" viewBox="0 0 192 192" role="img" aria-labelledby="title desc">
  <title id="title">Mardas MD2PDF emerald mark</title>
  <desc id="desc">A compact emerald M mark for the official Mardas MD2PDF guides.</desc>
  <defs>
    <linearGradient id="g" x1="0" x2="1" y1="0" y2="1">
      <stop offset="0" stop-color="#34d399"/>
      <stop offset="0.52" stop-color="#10b981"/>
      <stop offset="1" stop-color="#0f766e"/>
    </linearGradient>
    <filter id="s" x="-18%" y="-18%" width="136%" height="136%">
      <feDropShadow dx="0" dy="10" stdDeviation="10" flood-color="#064e3b" flood-opacity="0.24"/>
    </filter>
  </defs>
  <rect x="18" y="18" width="156" height="156" rx="42" fill="url(#g)" filter="url(#s)"/>
  <circle cx="96" cy="96" r="57" fill="#ecfdf5" opacity="0.12"/>
  <path d="M50 130V59h25l21 32 21-32h25v71h-24V94l-15 22H89L74 94v36Z" fill="#ffffff"/>
  <path d="M118 64c21 8 35 27 35 49 0 16-7 30-18 41-13 12-30 18-48 17 15-5 28-14 35-28 7-15 7-32 2-48-3-10-5-20-6-31Z" fill="#d1fae5" opacity="0.94"/>
</svg>
