<svg xmlns="http://www.w3.org/2000/svg" width="640" height="240" viewBox="0 0 640 240" role="img" aria-labelledby="title desc">
  <title id="title">Mardas MD2PDF sample logo</title>
  <desc id="desc">A compact sample mark used by the documentation image embedding section.</desc>
  <defs>
    <linearGradient id="g" x1="0" x2="1" y1="0" y2="1">
      <stop offset="0" stop-color="#10a37f"/>
      <stop offset="1" stop-color="#0f766e"/>
    </linearGradient>
    <style>
      .word{font:900 52px Segoe UI,Arial,sans-serif;fill:#0f172a;letter-spacing:-1px}
      .tag{font:700 20px Segoe UI,Arial,sans-serif;fill:#64748b;letter-spacing:2px}
    </style>
  </defs>
  <rect width="640" height="240" rx="38" fill="#f8fafc" stroke="#dbe3ef" stroke-width="4"/>
  <g transform="translate(58 58)">
    <rect x="0" y="0" width="116" height="116" rx="30" fill="url(#g)"/>
    <path d="M32 72c0-24 17-43 39-43 16 0 28 8 34 21-13-6-28-2-38 8-10 10-14 25-8 38-16-5-27-14-27-24Z" fill="#fff" opacity=".96"/>
    <path d="M31 82c22 10 48 4 63-15 7-9 10-19 10-30 13 11 17 31 8 47-12 22-41 30-81-2Z" fill="#ecfeff" opacity=".9"/>
  </g>
  <text x="204" y="108" class="word">Mardas MD2PDF</text>
  <text x="206" y="150" class="tag">LOCAL MARKDOWN PUBLISHING</text>
</svg>
