<svg xmlns="http://www.w3.org/2000/svg" width="720" height="260" viewBox="0 0 720 260" role="img" aria-labelledby="title desc">
  <title id="title">Mardas MD2PDF brand plate</title>
  <desc id="desc">Official emerald brand plate used in the Mardas MD2PDF guides.</desc>
  <defs>
    <linearGradient id="bg" x1="0" x2="1" y1="0" y2="1">
      <stop offset="0" stop-color="#ecfdf5"/>
      <stop offset="1" stop-color="#f8fafc"/>
    </linearGradient>
    <linearGradient id="mark" x1="0" x2="1" y1="0" y2="1">
      <stop offset="0" stop-color="#10b981"/>
      <stop offset="1" stop-color="#0f766e"/>
    </linearGradient>
    <style>
      .word{font:900 54px "Segoe UI",Arial,sans-serif;fill:#0f172a;letter-spacing:-1.2px}
      .tag{font:700 20px "Segoe UI",Arial,sans-serif;fill:#475569;letter-spacing:3px}
      .meta{font:600 17px "Segoe UI",Arial,sans-serif;fill:#0f766e}
    </style>
  </defs>
  <rect width="720" height="260" rx="34" fill="url(#bg)" stroke="#cbd5e1" stroke-width="3"/>
  <g transform="translate(44 34)">
    <rect x="0" y="0" width="172" height="172" rx="44" fill="url(#mark)"/>
    <circle cx="86" cy="86" r="58" fill="#ffffff" opacity="0.10"/>
    <path d="M64.1 38.5 L43.8 64.0 L32.3 89.4 L30.0 102.7 L30.6 115.9 L33.4 126.8 L38.2 135.3 L50.2 143.5 L64.5 143.2 L76.2 135.9 L96.1 115.6 L106.8 112.1 L112.6 113.4 L117.8 117.0 L120.9 123.0 L121.5 130.5 L115.9 142.8 L102.2 150.9 L102.2 153.3 L126.6 151.7 L145.8 142.4 L157.0 129.4 L161.9 114.1 L161.4 104.6 L157.9 95.8 L151.9 88.6 L144.5 83.5 L153.2 75.0 L158.5 66.1 L159.4 57.9 L156.1 49.4 L149.2 43.8 L141.2 41.3 L131.9 41.1 L121.2 43.6 L102.8 54.5 L85.2 74.1 L76.1 64.2 L66.4 39.1 Z" fill="#ffffff" transform="translate(-10 -5) scale(1.12)"/>
  </g>
  <text x="252" y="110" class="word">Mardas MD2PDF</text>
  <text x="254" y="148" class="tag">MARKDOWN TO PDF</text>
  <text x="254" y="186" class="meta">Bilingual Markdown publishing</text>
</svg>
