<svg xmlns="http://www.w3.org/2000/svg" width="720" height="260" viewBox="0 0 720 260" role="img" aria-labelledby="title desc">
  <title id="title">Mardas MD2PDF brand plate</title>
  <desc id="desc">Official emerald brand plate used in the Mardas MD2PDF guides.</desc>
  <defs>
    <linearGradient id="bg" x1="0" x2="1" y1="0" y2="1">
      <stop offset="0" stop-color="#ecfdf5"/>
      <stop offset="1" stop-color="#f8fafc"/>
    </linearGradient>
    <linearGradient id="mark" x1="0" x2="1" y1="0" y2="1">
      <stop offset="0" stop-color="#10b981"/>
      <stop offset="1" stop-color="#0f766e"/>
    </linearGradient>
    <filter id="shadow" x="-20%" y="-20%" width="140%" height="140%">
      <feDropShadow dx="0" dy="8" stdDeviation="10" flood-color="#0f172a" flood-opacity="0.14"/>
    </filter>
    <style>
      .word{font:900 54px "Segoe UI",Arial,sans-serif;fill:#0f172a;letter-spacing:-1.2px}
      .tag{font:700 20px "Segoe UI",Arial,sans-serif;fill:#475569;letter-spacing:3px}
      .meta{font:600 18px "Segoe UI",Arial,sans-serif;fill:#0f766e}
    </style>
  </defs>
  <rect width="720" height="260" rx="34" fill="url(#bg)" stroke="#cbd5e1" stroke-width="3"/>
  <g transform="translate(44 34)" filter="url(#shadow)">
    <rect x="0" y="0" width="172" height="172" rx="44" fill="url(#mark)"/>
    <circle cx="86" cy="86" r="58" fill="#ffffff" opacity="0.10"/>
    <path d="M45 122V52h24l18 31 18-31h24v70h-20V85l-16 27H81L65 85v37Z" fill="#ffffff"/>
    <path d="M118 58c17 8 28 25 28 44 0 13-5 24-14 33-10 10-24 15-39 15-14 0-26-4-36-12 12 2 26 0 36-8 9-6 15-17 16-29 2-16 6-30 9-43Z" fill="#d1fae5" opacity="0.92"/>
  </g>
  <text x="252" y="110" class="word">Mardas MD2PDF</text>
  <text x="254" y="148" class="tag">MARKDOWN TO PDF</text>
  <text x="254" y="186" class="meta">Structured publishing for bilingual technical documents</text>
</svg>
